<?xml version="1.0" encoding="utf-8"?>
<!-- Generator: Adobe Illustrator 16.0.0, SVG Export Plug-In . SVG Version: 6.00 Build 0)  -->
<!DOCTYPE svg PUBLIC "-//W3C//DTD SVG 1.1//EN" "http://www.w3.org/Graphics/SVG/1.1/DTD/svg11.dtd">
<svg version="1.1" id="Capa_1" xmlns="http://www.w3.org/2000/svg" xmlns:xlink="http://www.w3.org/1999/xlink" x="0px" y="0px"
	 width="595.28px" height="229.89px" viewBox="0 0 595.28 229.89" enable-background="new 0 0 595.28 229.89" xml:space="preserve">
<g>
	<g>
		<path fill-rule="evenodd" clip-rule="evenodd" fill="#FDFDFD" d="M294.762,8.297c97.592,0,195.185,0.003,292.776-0.034
			c1.456,0,1.914,0.217,1.913,1.828c-0.052,70.464-0.052,140.929,0.003,211.393c0.001,1.57-0.447,1.724-1.813,1.724
			c-193.489-0.032-386.979-0.032-580.467,0c-1.361,0-1.816-0.147-1.814-1.722C5.415,151.021,5.414,80.557,5.363,10.092
			c-0.001-1.607,0.453-1.83,1.911-1.829c92.031,0.038,184.061,0.034,276.092,0.034c-0.486,1.474-1.875,1.093-2.879,1.268
			c-5.787,1.008-11.394,2.59-16.561,5.405c-16.381,8.927-26.356,22.488-28.846,41.097c-2.024,15.129,1.825,28.851,11.418,40.727
			c9.326,11.545,21.555,18.315,36.305,19.92c18.044,1.963,33.599-3.699,46.232-16.755c7.391-7.638,11.95-16.877,13.873-27.366
			c0.396-2.161,0.254-2.29-1.983-2.307c-4.822-0.035-4.698,0-5.988,4.494c-4.521,15.749-14.395,26.799-29.857,32.23
			c-16.454,5.779-31.963,3.181-45.628-7.641c-10.263-8.127-16.166-18.95-17.359-32.191c-1.292-14.352,3.288-26.712,13.192-36.852
			c8.696-8.902,19.492-13.689,32.16-14.061c12.221-0.358,22.972,3.323,32.338,11.062c7.372,6.091,12.224,13.893,14.93,23.033
			c0.874,2.953,0.807,2.982,3.809,2.978c4.659-0.008,4.735,0.425,3.356-4.408c-4.268-14.964-13.243-26.196-26.951-33.626
			c-5.486-2.973-11.318-4.847-17.469-5.837C296.53,9.319,295.199,9.719,294.762,8.297z"/>
		<path fill-rule="evenodd" clip-rule="evenodd" fill="#E20613" d="M294.762,8.297c2.535,0.536,5.107,0.941,7.6,1.63
			c21.59,5.973,35.197,19.802,40.764,41.53c0.438,1.708,0.218,2.479-1.803,2.275c-1.947-0.197-4.22,0.528-5.813-0.249
			c-1.691-0.826-1.303-3.458-1.986-5.25c-6.67-17.482-19.109-28.054-37.625-30.963c-24.681-3.879-47.742,12.601-52.722,36.826
			c-4.789,23.3,9.939,47.025,33.212,53.485c26,7.218,52.314-8.375,58.495-34.664c0.748-3.178,0.748-3.178,4.029-3.178
			c1.618,0,3.236,0,4.987,0c-1.705,12.636-6.95,23.325-15.935,32.08c-11.067,10.786-24.459,15.942-39.88,15.883
			c-26.681-0.103-50.412-21.332-53.649-47.473c-3.886-31.385,18.653-58.076,48.133-61.52c0.323-0.038,0.692,0.038,0.797-0.412
			c0.542,0,1.085,0,1.628,0c0.814,0.333,1.627,0.333,2.441,0c1.221,0,2.442,0,3.663,0c0.814,0.333,1.628,0.333,2.442,0
			C293.948,8.297,294.354,8.297,294.762,8.297z"/>
		<path fill-rule="evenodd" clip-rule="evenodd" fill="#E94750" d="M293.541,8.297c-0.814,0.655-1.628,0.599-2.442,0
			C291.913,8.297,292.727,8.297,293.541,8.297z"/>
		<path fill-rule="evenodd" clip-rule="evenodd" fill="#E83E47" d="M287.436,8.297c-0.814,0.59-1.627,0.662-2.441,0
			C285.809,8.297,286.622,8.297,287.436,8.297z"/>
		<path fill-rule="evenodd" clip-rule="evenodd" fill="#233860" d="M322.402,69.738c-2.934,11.913-9.864,20.258-21.131,24.612
			c-19.758,7.637-41.329-4.435-45.457-25.219c-3.637-18.312,9.652-36.856,28.171-39.311c16.476-2.184,31.435,6.585,37.022,21.702
			c0.798,2.161,0.778,1.972-1.471,2.206c-4.156,0.433-6.831-0.485-9.261-4.652c-5.216-8.943-16.228-13.035-26.228-10.922
			c-10.349,2.188-18.259,10.21-20.144,20.43c-2.614,14.176,7.87,27.955,22.208,29.573c12.627,1.425,23.699-6.395,27.325-17.159
			c0.265-0.785,0.474-1.307,1.462-1.281C317.332,69.78,319.769,69.738,322.402,69.738z"/>
		<path fill-rule="evenodd" clip-rule="evenodd" fill="#233860" d="M155.842,152.389c2.166-5.301,6.566-6.122,11.292-6.103
			c4.603,0.019,9.233-0.437,13.805,0.267c6.509,1.001,9.325,4.27,9.519,11.515c0.215,7.994,0.036,15.999,0.073,23.999
			c0.004,1.01-0.357,1.265-1.299,1.245c-2.372-0.052-4.749-0.102-7.116,0.015c-1.396,0.069-1.834-0.287-1.816-1.757
			c0.084-6.71,0.04-13.423,0.036-20.135c-0.002-5.035-1.358-6.413-6.379-6.406c-2.709,0.003-5.424-0.01-8.126,0.151
			c-3.895,0.233-5.317,1.728-5.351,5.657c-0.059,6.847-0.08,13.696,0.027,20.542c0.025,1.663-0.496,2.053-2.028,1.945
			c-1.821-0.127-3.664-0.113-5.488-0.001c-1.266,0.078-1.59-0.324-1.578-1.576c0.063-6.508,0.03-13.017,0.029-19.525
			c0-0.542,0.027-1.087-0.01-1.626c-0.265-3.879-1.494-5.146-5.388-5.428c-3.45-0.25-6.91-0.305-10.355,0.013
			c-2.484,0.229-3.421,1.194-3.905,3.645c-0.357,1.813-0.204,3.649-0.209,5.476c-0.019,5.694-0.081,11.391,0.039,17.083
			c0.035,1.678-0.518,2.021-2.035,1.941c-2.299-0.12-4.609-0.053-6.914-0.02c-0.813,0.012-1.235-0.163-1.219-1.11
			c0.15-8.469-0.385-16.954,0.277-25.406c0.521-6.646,3.265-9.636,9.822-10.294c5.579-0.559,11.236-0.566,16.839,0.113
			C151.844,147.027,154.495,148.67,155.842,152.389z"/>
		<path fill-rule="evenodd" clip-rule="evenodd" fill="#233860" d="M197.97,175.069c0.208-4.965-0.395-11.072,0.286-17.149
			c0.747-6.67,3.505-10.119,10.182-10.984c9.608-1.245,19.322-1.322,28.941,0.146c5.054,0.771,8.267,3.893,9.096,9.052
			c0.951,5.917,0.996,11.862-0.095,17.775c-0.873,4.731-3.919,7.411-8.452,8.537c-2.305,0.572-4.654,0.856-7.039,0.852
			c-6.979-0.012-13.958,0.03-20.937-0.034c-1.322-0.012-1.749,0.335-1.693,1.682c0.106,2.571-0.031,5.15,0.057,7.723
			c0.043,1.281-0.414,1.622-1.639,1.574c-2.3-0.09-4.611-0.106-6.909,0.004c-1.403,0.067-1.856-0.331-1.833-1.789
			C198.021,187.037,197.97,181.615,197.97,175.069z"/>
		<path fill-rule="evenodd" clip-rule="evenodd" fill="#233860" d="M39.298,183.293c-5.272-0.258-11.797,0.482-18.28-0.356
			c-7.683-0.995-10.946-3.954-11.664-11.614c-0.708-7.552-0.727-15.198,0.015-22.749c0.763-7.769,4.534-11.05,12.297-11.69
			c8.462-0.698,16.942-0.185,25.414-0.316c3.662-0.057,7.326,0.034,10.988-0.034c1.15-0.021,1.543,0.304,1.49,1.475
			c-0.089,1.963-0.121,3.939,0.007,5.898c0.095,1.458-0.413,1.792-1.811,1.784c-9.902-0.059-19.805-0.033-29.708-0.031
			c-7.015,0.001-8.46,1.445-8.461,8.44c0,4.341-0.016,8.682,0.004,13.023c0.027,5.769,1.608,7.384,7.378,7.402
			c10.174,0.031,20.349,0.055,30.521-0.036c1.738-0.015,2.236,0.474,2.077,2.143c-0.148,1.545-0.129,3.125-0.004,4.675
			c0.123,1.528-0.272,2.066-1.942,2.031C51.924,183.22,46.225,183.293,39.298,183.293z"/>
		<path fill-rule="evenodd" clip-rule="evenodd" fill="#233860" d="M89.615,183.319c-4.055-0.194-8.255,0.209-12.45-0.384
			c-6.935-0.979-10.318-4.108-11.192-11.006c-0.649-5.122-0.631-10.288,0.129-15.403c0.771-5.188,3.843-8.325,9.01-9.457
			c1.32-0.29,2.664-0.601,4.004-0.638c7.45-0.209,14.922-0.619,22.345,0.174c8.545,0.913,11.633,4.129,12.427,12.686
			c0.419,4.517,0.412,9.077-0.278,13.59c-0.802,5.238-3.721,8.34-8.873,9.615C99.79,183.719,94.754,183.144,89.615,183.319z"/>
		<path fill-rule="evenodd" clip-rule="evenodd" fill="#E20613" d="M340.206,183.293c-5.27-0.249-11.798,0.493-18.277-0.338
			c-8.021-1.029-11.305-4.097-11.891-12.073c-0.552-7.492-0.679-15.062,0.105-22.55c0.781-7.458,4.564-10.745,12.11-11.447
			c6.634-0.617,13.279-0.233,19.92-0.312c5.426-0.065,10.854,0.055,16.277-0.056c1.588-0.032,1.977,0.458,1.862,1.939
			c-0.13,1.686-0.145,3.399,0.002,5.082c0.144,1.647-0.302,2.166-2.06,2.148c-9.494-0.098-18.991-0.046-28.487-0.046
			c-8.287,0-9.435,1.134-9.435,9.316c0,4.07-0.018,8.139,0.004,12.208c0.03,5.732,1.627,7.356,7.418,7.377
			c10.174,0.037,20.349,0.039,30.522-0.021c1.5-0.008,2.201,0.255,2.041,1.952c-0.164,1.748-0.124,3.529-0.007,5.285
			c0.086,1.281-0.334,1.58-1.578,1.565C352.97,183.255,347.204,183.293,340.206,183.293z"/>
		<path fill-rule="evenodd" clip-rule="evenodd" fill="#E20613" d="M396.202,168.642c-5.829,0-11.657,0.039-17.485-0.03
			c-1.269-0.015-1.587,0.354-1.584,1.594c0.01,3.966,1.136,5.211,5.18,5.28c3.861,0.065,7.725,0.103,11.586,0.047
			c1.216-0.018,1.693,0.263,1.606,1.557c-0.113,1.687-0.025,3.387-0.031,5.081c-0.002,0.536,0.073,1.144-0.76,1.113
			c-6.147-0.229-12.354,0.703-18.437-0.667c-5.945-1.339-8.785-4.438-9.309-10.708c-0.428-5.115-0.543-10.299,0.141-15.418
			c0.82-6.147,3.805-8.962,10.049-9.814c2.082-0.284,4.17-0.439,6.277-0.429c6.37,0.032,12.741,0.018,19.111,0.008
			c2.113-0.004,4.193,0.239,6.217,0.833c4.264,1.25,6.409,3.77,6.597,8.186c0.172,4.059,0.007,8.131,0.082,12.196
			c0.023,1.295-0.717,1.177-1.552,1.176C407.994,168.638,402.098,168.642,396.202,168.642z"/>
		<path fill-rule="evenodd" clip-rule="evenodd" fill="#E20613" d="M537.146,168.642c-5.829,0-11.658,0.039-17.485-0.03
			c-1.306-0.016-1.737,0.297-1.72,1.664c0.049,3.875,1.158,5.135,5.049,5.208c3.794,0.071,7.59,0.118,11.383,0.045
			c1.418-0.026,2.15,0.199,1.938,1.836c-0.246,1.917,0.832,4.506-0.44,5.604c-1.104,0.953-3.613,0.351-5.499,0.31
			c-3.923-0.086-7.852,0.275-11.77-0.333c-6.707-1.042-10.143-4.184-10.801-10.904c-0.501-5.107-0.563-10.3,0.104-15.416
			c0.823-6.312,3.818-9.105,10.133-9.963c2.424-0.329,4.853-0.42,7.295-0.41c6.032,0.025,12.063,0.012,18.096,0.006
			c2.043-0.001,4.054,0.236,6.017,0.804c4.456,1.289,6.607,3.881,6.754,8.485c0.127,3.927-0.027,7.862,0.061,11.791
			c0.03,1.365-0.678,1.318-1.628,1.315C548.803,168.631,542.975,168.642,537.146,168.642z"/>
		<path fill-rule="evenodd" clip-rule="evenodd" fill="#233860" d="M302.707,160.197c-0.098,3.291,0.152,7.222-0.198,11.149
			c-0.61,6.832-4.132,10.557-10.938,11.529c-2.289,0.327-4.58,0.486-6.89,0.418c-6.161-0.181-12.339,0.412-18.486-0.38
			c-7.245-0.933-10.765-4.514-11.362-11.739c-0.654-7.917-0.14-15.856-0.313-23.784c-0.025-1.133,0.577-1.146,1.395-1.139
			c2.576,0.022,5.155,0.071,7.729-0.02c1.202-0.042,1.439,0.396,1.432,1.5c-0.046,6.51-0.022,13.019-0.023,19.529
			c0,1.018,0.034,2.021,0.296,3.023c0.654,2.498,1.884,3.824,4.464,4.01c6.02,0.436,12.059,0.458,18.077-0.01
			c2.964-0.23,4.393-2.055,4.443-5.535c0.096-6.711,0.135-13.427,0-20.137c-0.041-2.008,0.515-2.566,2.453-2.392
			c2.018,0.181,4.075,0.163,6.095,0.001c1.624-0.13,1.896,0.503,1.86,1.947C302.646,151.962,302.707,155.762,302.707,160.197z"/>
		<path fill-rule="evenodd" clip-rule="evenodd" fill="#E20613" d="M470.638,170.542c0,3.795-0.032,7.591,0.022,11.385
			c0.015,1.033-0.236,1.426-1.341,1.39c-2.438-0.08-4.885-0.128-7.316,0.013c-1.552,0.09-1.712-0.56-1.699-1.865
			c0.062-6.234,0.039-12.47,0.016-18.705c-0.003-1.009-0.099-2.028-0.263-3.025c-0.464-2.823-1.68-4.204-4.463-4.442
			c-6.08-0.521-12.186-0.551-18.263,0.017c-3.015,0.282-4.522,2.132-4.582,5.468c-0.12,6.707-0.152,13.417-0.041,20.124
			c0.033,1.932-0.39,2.618-2.404,2.437c-2.219-0.199-4.47-0.087-6.705-0.026c-1.015,0.027-1.436-0.218-1.409-1.337
			c0.182-7.854-0.325-15.72,0.318-23.566c0.59-7.195,4.231-11.044,11.361-11.719c8.239-0.78,16.513-0.777,24.75-0.033
			c7.881,0.711,11.588,4.762,11.924,12.708c0.157,3.72,0.026,7.452,0.026,11.179C470.593,170.542,470.615,170.542,470.638,170.542z"
			/>
		<path fill-rule="evenodd" clip-rule="evenodd" d="M351.247,56.328c-0.032-0.925-0.839-1.197-1.112-2.074
			c1.568,0,3.014,0.022,4.458-0.012c0.547-0.013,0.881,0.248,1.188,0.624c1.63,1.987,3.242,3.99,4.901,5.952
			c0.54,0.639,0.53,1.116-0.018,1.749c-1.681,1.942-3.314,3.925-4.959,5.898c-0.38,0.455-0.848,0.601-1.428,0.589
			c-1.332-0.026-2.665-0.008-4.271-0.008c0.479-0.759,0.782-1.24,1.165-1.849c-0.761-0.43-1.499-0.255-2.185-0.255
			c-19.254-0.012-38.508-0.01-57.762-0.01c-2.601,0-2.601,0-2.601-2.701c0-2.102,0.127-4.213-0.041-6.302
			c-0.134-1.674,0.719-1.621,1.916-1.619c16.271,0.027,32.542,0.018,48.813,0.018C343.278,56.328,347.244,56.328,351.247,56.328z"/>
		<path fill-rule="evenodd" clip-rule="evenodd" fill="#E20613" d="M491.327,168.896c0,4.272-0.04,8.545,0.026,12.815
			c0.019,1.183-0.19,1.682-1.527,1.616c-2.436-0.121-4.885-0.122-7.32-0.001c-1.412,0.07-1.809-0.313-1.796-1.764
			c0.075-8.407-0.003-16.816,0.074-25.224c0.014-1.507-0.338-1.965-1.891-1.915c-3.368,0.108-3.371,0.016-3.371-3.383
			c0-0.136-0.002-0.271,0.001-0.407c0.025-1.351-0.43-3.026,0.203-3.968c0.718-1.068,2.511-0.346,3.825-0.37
			c1.027-0.018,1.23-0.389,1.213-1.312c-0.051-2.643,0.023-5.29-0.039-7.933c-0.023-1.016,0.193-1.437,1.322-1.401
			c2.642,0.084,5.289,0.072,7.932,0.004c1.05-0.026,1.403,0.266,1.372,1.35c-0.075,2.643,0.028,5.29-0.05,7.933
			c-0.032,1.096,0.342,1.364,1.379,1.342c2.982-0.061,5.968,0.019,8.95-0.043c1.069-0.022,1.6,0.154,1.525,1.402
			c-0.107,1.824-0.089,3.663-0.004,5.49c0.05,1.086-0.318,1.383-1.375,1.357c-2.778-0.067-5.564,0.078-8.338-0.061
			c-1.638-0.082-2.22,0.293-2.158,2.062C491.425,160.62,491.327,164.76,491.327,168.896z"/>
		<path fill-rule="evenodd" clip-rule="evenodd" fill="#E20613" d="M581.594,146.33c1.811,0.096,4.218-0.862,5.267,0.302
			c0.892,0.988,0.281,3.351,0.294,5.106c0.02,2.728,0.005,2.699-2.633,2.737c-2.3,0.033-4.607-0.19-6.896,0.279
			c-2.469,0.506-3.64,1.646-4.121,4.108c-0.514,2.624-0.282,5.275-0.3,7.914c-0.033,5.019-0.042,10.038,0.015,15.056
			c0.014,1.13-0.275,1.528-1.453,1.487c-2.506-0.086-5.02-0.075-7.526-0.003c-1.061,0.03-1.383-0.277-1.375-1.357
			c0.053-6.985-0.1-13.974,0.077-20.955c0.245-9.739,4.395-13.935,14.18-14.66C578.604,146.235,580.103,146.33,581.594,146.33z"/>
		<path fill-rule="evenodd" clip-rule="evenodd" d="M476.263,203.041c0.307,0.199,0.523,0.364,0.762,0.489
			c2.726,1.434,3.875,3.121,3.597,5.294c-0.301,2.341-2.324,4.345-5.003,4.994c-2.332,0.565-4.701,0.395-7.062,0.402
			c-4.36,0.014-4.36,0.004-4.36-4.429c0-4.676,0.03-9.351-0.022-14.025c-0.013-1.102,0.23-1.576,1.439-1.506
			c2.359,0.136,4.735-0.144,7.088,0.253c0.597,0.101,1.213,0.143,1.783,0.328c1.926,0.623,3.688,1.509,4.188,3.706
			C479.149,200.65,477.93,201.971,476.263,203.041z"/>
		<path fill-rule="evenodd" clip-rule="evenodd" d="M585.106,207.003c0,2.033-0.04,4.067,0.019,6.098
			c0.025,0.895-0.307,1.346-1.144,1.099c-1.304-0.385-3.052,1.094-3.987-1.016c-0.198-0.447-0.805,0.208-1.183,0.386
			c-3.215,1.522-6.424,1.484-9.552-0.133c-2.788-1.442-4.479-3.648-4.306-6.981c0.169-3.244,2.071-5.227,4.84-6.428
			c2.999-1.301,6.043-1.204,9.024,0.237c0.505,0.244,0.828,0.873,1.564-0.301c0.677-1.078,2.783-0.476,4.199-0.301
			c1.039,0.128,0.46,1.348,0.496,2.057C585.167,203.476,585.107,205.241,585.106,207.003z"/>
		<path fill-rule="evenodd" clip-rule="evenodd" d="M495.882,214.66c-3.252-0.125-6.218-1.042-8.431-3.642
			c-2.16-2.539-2.043-6.042,0.217-8.482c3.969-4.288,12.201-4.53,16.42-0.483c3.037,2.915,2.997,6.95-0.137,9.803
			C501.685,213.92,498.906,214.584,495.882,214.66z"/>
		<path fill-rule="evenodd" clip-rule="evenodd" d="M530.954,199.87c3.755-1.362,5.671,0.4,6.981,3.534
			c0.668,1.597,1.713,3.036,2.723,4.779c1.349-2.364,2.678-4.45,3.753-6.659c0.754-1.548,1.706-2.263,3.439-1.972
			c0.769,0.129,1.575,0.021,2.656,0.021c-2.731,4.801-5.305,9.379-7.94,13.92c-0.669,1.153-3.225,1.061-3.898-0.108
			C536.072,208.885,533.515,204.364,530.954,199.87z"/>
		<path fill-rule="evenodd" clip-rule="evenodd" fill="#010101" d="M511.194,203.878c0-2.843,0.047-5.686-0.023-8.527
			c-0.026-1.086,0.182-1.51,1.403-1.512c3.505-0.004,3.505-0.069,3.505,3.478c0,5.076-0.04,10.152,0.028,15.228
			c0.017,1.275-0.253,1.744-1.643,1.717c-3.269-0.063-3.271,0.019-3.271-3.278C511.194,208.615,511.194,206.247,511.194,203.878z"/>
		<path fill-rule="evenodd" clip-rule="evenodd" fill="#F1F1F1" d="M73.374,202.823c-7.461,0-14.923,0.002-22.384,0.003
			c-0.829-1.22-0.828-2.439-0.001-3.66c7.461,0,14.922,0.001,22.384,0.001C74.194,200.385,74.198,201.604,73.374,202.823z"/>
		<path fill-rule="evenodd" clip-rule="evenodd" fill="#C8C8C8" d="M237.792,202.78c-7.055,0.002-14.11,0.003-21.165,0.005
			c-0.84-1.202-0.813-2.404-0.003-3.608c7.054,0.001,14.109,0.001,21.164,0.002C238.591,200.379,238.62,201.579,237.792,202.78z"/>
		<path fill-rule="evenodd" clip-rule="evenodd" fill="#ECECEC" d="M73.374,202.823c-0.001-1.219-0.001-2.438-0.002-3.656
			c6.511,0,13.023,0,19.535,0.001c0.821,1.217,0.827,2.434,0.001,3.651C86.396,202.82,79.885,202.821,73.374,202.823z"/>
		<path fill-rule="evenodd" clip-rule="evenodd" fill="#010101" d="M521.714,206.915c0-1.485-0.034-2.971,0.013-4.454
			c0.029-0.917-0.412-2.414,0.23-2.635c1.268-0.435,2.769-0.233,4.172-0.21c0.718,0.011,0.523,0.663,0.524,1.091
			c0.012,4.116-0.013,8.233,0.023,12.349c0.008,0.852-0.216,1.136-1.118,1.195c-3.847,0.25-3.845,0.287-3.845-3.49
			C521.714,209.479,521.714,208.197,521.714,206.915z"/>
		<path fill-rule="evenodd" clip-rule="evenodd" fill="#010101" d="M559.625,206.998c0,2.024-0.037,4.05,0.017,6.073
			c0.024,0.872-0.252,1.123-1.134,1.179c-3.831,0.244-3.829,0.278-3.829-3.503c0-3.239,0.047-6.479-0.026-9.717
			c-0.025-1.115,0.23-1.488,1.422-1.491c3.551-0.009,3.551-0.069,3.551,3.411C559.625,204.298,559.625,205.648,559.625,206.998z"/>
		<path fill-rule="evenodd" clip-rule="evenodd" fill="#8E8E8D" d="M427.435,199.188c5.887-0.026,11.774-0.009,17.66-0.105
			c1.676-0.028,1.387,1.003,1.426,1.997c0.04,1.027,0.042,1.803-1.423,1.78c-5.886-0.093-11.773-0.076-17.66-0.099
			C426.602,201.57,426.628,200.379,427.435,199.188z"/>
		<path fill-rule="evenodd" clip-rule="evenodd" fill="#A7A7A6" d="M359.881,202.763c-6.24,0-12.48,0-18.721,0
			c-0.836-1.192-0.811-2.384-0.003-3.578c6.24,0,12.481,0,18.721,0C360.682,200.377,360.707,201.57,359.881,202.763z"/>
		<path fill-rule="evenodd" clip-rule="evenodd" fill="#F6F6F6" d="M50.988,199.166c0,1.22,0.001,2.44,0.001,3.66
			c-6.105,0-12.209,0.001-18.314,0.001c-0.828-1.22-0.827-2.441-0.001-3.662C38.779,199.166,44.883,199.166,50.988,199.166z"/>
		<path fill-rule="evenodd" clip-rule="evenodd" fill="#B3B2B2" d="M318.37,202.766c-6.104,0.001-12.209,0.002-18.313,0.003
			c-0.844-1.195-0.807-2.391-0.003-3.587c6.104,0.001,12.209,0.001,18.313,0.001C319.172,200.377,319.196,201.571,318.37,202.766z"
			/>
		<path fill-rule="evenodd" clip-rule="evenodd" fill="#9C9C9B" d="M376.971,199.187c6.104,0,12.209,0,18.313,0
			c0.804,1.191,0.828,2.382,0.003,3.574c-6.104,0-12.209,0-18.313,0C376.137,201.571,376.162,200.379,376.971,199.187z"/>
		<path fill-rule="evenodd" clip-rule="evenodd" fill="#979696" d="M395.287,202.761c-0.001-1.191-0.002-2.383-0.003-3.574
			c6.104,0,12.209,0,18.313,0c0.804,1.19,0.829,2.382,0.002,3.574C407.495,202.761,401.391,202.761,395.287,202.761z"/>
		<path fill-rule="evenodd" clip-rule="evenodd" fill="#E0E0E0" d="M137.269,202.807c-5.833,0.002-11.667,0.003-17.5,0.005
			c-0.834-1.214-0.824-2.429-0.002-3.644c5.833,0.001,11.667,0.001,17.5,0.002C138.082,200.382,138.094,201.594,137.269,202.807z"/>
		<path fill-rule="evenodd" clip-rule="evenodd" fill="#C2C2C2" d="M237.792,202.78c-0.001-1.2-0.003-2.4-0.004-3.601
			c5.833,0,11.665,0,17.499,0c0.802,1.198,0.835,2.397,0.002,3.596C249.457,202.777,243.625,202.778,237.792,202.78z"/>
		<path fill-rule="evenodd" clip-rule="evenodd" fill="#A2A1A1" d="M376.971,199.187c0.001,1.191,0.002,2.383,0.003,3.574
			c-5.697,0.001-11.396,0.001-17.093,0.002c-0.001-1.193-0.001-2.386-0.003-3.578C365.576,199.186,371.273,199.187,376.971,199.187z
			"/>
		<path fill-rule="evenodd" clip-rule="evenodd" fill="#B7B6B6" d="M300.054,199.182c0.001,1.196,0.003,2.392,0.003,3.587
			c-5.562,0-11.124,0.001-16.686,0.002c-0.843-1.195-0.808-2.392-0.003-3.589C288.93,199.182,294.492,199.182,300.054,199.182z"/>
		<path fill-rule="evenodd" clip-rule="evenodd" fill="#CCCCCC" d="M216.625,199.177c0.001,1.203,0.002,2.406,0.003,3.608
			c-5.155,0.001-10.31,0.002-15.465,0.003c-0.839-1.204-0.815-2.408-0.003-3.613C206.315,199.176,211.47,199.177,216.625,199.177z"
			/>
		<path fill-rule="evenodd" clip-rule="evenodd" fill="#DCDCDC" d="M137.269,202.807c-0.001-1.212-0.002-2.424-0.003-3.636
			c5.02,0,10.039,0,15.058,0.001c0.815,1.21,0.83,2.42,0.002,3.631C147.306,202.805,142.288,202.806,137.269,202.807z"/>
		<path fill-rule="evenodd" clip-rule="evenodd" fill="#BCBBBB" d="M283.368,199.182c0.001,1.197,0.002,2.394,0.003,3.59
			c-4.748,0-9.497,0.001-14.245,0.002c-0.841-1.197-0.807-2.395-0.002-3.593C273.872,199.181,278.62,199.181,283.368,199.182z"/>
		<path fill-rule="evenodd" clip-rule="evenodd" fill="#E5E5E5" d="M119.766,199.169c0.001,1.214,0.001,2.429,0.002,3.644
			c-4.613,0.001-9.226,0.002-13.838,0.003c-0.831-1.215-0.824-2.431-0.001-3.647C110.541,199.168,115.154,199.169,119.766,199.169z"
			/>
		<path fill-rule="evenodd" clip-rule="evenodd" fill="#BFBEBE" d="M269.124,199.181c0,1.198,0.001,2.396,0.002,3.593
			c-4.612,0-9.225,0.002-13.837,0.002c0-1.199-0.001-2.397-0.002-3.597C259.899,199.18,264.512,199.181,269.124,199.181z"/>
		<path fill-rule="evenodd" clip-rule="evenodd" fill="#939392" d="M413.6,202.761c-0.001-1.191-0.002-2.383-0.002-3.574
			c4.612,0,9.225,0,13.837,0c0.001,1.191,0.002,2.381,0.003,3.573C422.824,202.76,418.212,202.76,413.6,202.761z"/>
		<path fill-rule="evenodd" clip-rule="evenodd" fill="#AEADAD" d="M318.37,202.766c-0.001-1.194-0.002-2.389-0.003-3.583
			c4.341,0,8.682,0.001,13.022,0.001c0.806,1.193,0.83,2.386,0.001,3.58C327.051,202.765,322.711,202.766,318.37,202.766z"/>
		<path fill-rule="evenodd" clip-rule="evenodd" fill="#E8E8E8" d="M105.929,199.168c0,1.216,0.001,2.432,0.001,3.647
			c-4.341,0.001-8.682,0.002-13.022,0.003c0-1.217-0.001-2.434-0.001-3.651C97.247,199.168,101.588,199.168,105.929,199.168z"/>
		<path fill-rule="evenodd" clip-rule="evenodd" fill="#D0D0D0" d="M201.16,199.176c0,1.205,0.002,2.409,0.003,3.613
			c-4.206,0.001-8.412,0.002-12.617,0.003c-0.836-1.205-0.815-2.411-0.002-3.617C192.749,199.176,196.955,199.176,201.16,199.176z"
			/>
		<path fill-rule="evenodd" clip-rule="evenodd" fill="#FAFAFA" d="M32.674,199.166c0,1.22,0,2.441,0.001,3.662
			c-3.505,0-7.012-0.07-10.514,0.032c-1.57,0.045-1.712-0.701-1.73-1.963c-0.019-1.303,0.384-1.785,1.729-1.756
			C25.664,199.216,29.169,199.166,32.674,199.166z"/>
		<path fill-rule="evenodd" clip-rule="evenodd" fill="#D9D9D9" d="M152.325,202.803c0-1.211-0.001-2.421-0.002-3.631
			c4.07,0,8.14,0,12.209,0c0.794,1.208,0.848,2.418,0.002,3.627C160.465,202.801,156.395,202.802,152.325,202.803z"/>
		<path fill-rule="evenodd" clip-rule="evenodd" fill="#D3D3D3" d="M188.543,199.176c0.001,1.206,0.002,2.412,0.002,3.617
			c-4.069,0.001-8.139,0.003-12.209,0.004c-0.836-1.207-0.816-2.415-0.002-3.623C180.404,199.174,184.474,199.175,188.543,199.176z"
			/>
		<path fill-rule="evenodd" clip-rule="evenodd" fill="#D6D6D6" d="M176.334,199.174c0.001,1.208,0.001,2.416,0.002,3.623
			c-3.934,0-7.868,0.002-11.802,0.003c-0.001-1.21-0.001-2.419-0.002-3.628C168.467,199.172,172.401,199.173,176.334,199.174z"/>
		<path fill-rule="evenodd" clip-rule="evenodd" fill="#ABAAAA" d="M331.391,202.765c0-1.194-0.001-2.387-0.001-3.58
			c3.256,0,6.512,0,9.768,0c0.001,1.193,0.002,2.386,0.003,3.579C337.903,202.764,334.647,202.764,331.391,202.765z"/>
		<path fill-rule="evenodd" clip-rule="evenodd" fill="#020202" d="M557.255,198.352c-1.695,0.028-3.152-1.076-3.199-2.424
			c-0.044-1.25,1.321-2.396,2.934-2.46c1.7-0.068,3.194,0.984,3.281,2.311C560.359,197.149,558.982,198.324,557.255,198.352z"/>
		<path fill-rule="evenodd" clip-rule="evenodd" fill="#020202" d="M523.788,193.473c2.04-0.038,3.485,1.046,3.518,2.39
			c0.032,1.371-1.37,2.498-3.099,2.489c-1.704-0.008-3.228-1.165-3.092-2.506C521.289,194.114,522.614,193.639,523.788,193.473z"/>
		<path fill-rule="evenodd" clip-rule="evenodd" fill="#FEFEFE" d="M220.444,174.532c-3.527,0-7.053-0.026-10.579,0.016
			c-1.042,0.012-1.63-0.145-1.596-1.414c0.116-4.267,0.049-8.54,0.21-12.805c0.125-3.311,1.754-4.935,5.104-5.125
			c5.958-0.337,11.926-0.348,17.882,0.029c3.382,0.214,4.927,1.776,5.083,5.143c0.135,2.909,0.127,5.833,0.008,8.743
			c-0.146,3.555-1.613,5.097-5.138,5.242c-3.652,0.15-7.315,0.033-10.974,0.033C220.444,174.44,220.444,174.486,220.444,174.532z"/>
		<path fill-rule="evenodd" clip-rule="evenodd" fill="#FEFEFE" d="M89.301,174.339c-2.708,0-5.428,0.152-8.122-0.039
			c-3.275-0.232-4.729-1.771-5.015-5.033c-0.266-3.04-0.282-6.096,0.019-9.135c0.304-3.082,1.688-4.62,4.734-4.854
			c5.951-0.46,11.922-0.476,17.872,0.014c3.025,0.249,4.448,1.876,4.719,4.879c0.268,2.974,0.281,5.954,0.026,8.929
			c-0.284,3.323-1.769,4.84-5.092,5.237C95.401,174.701,92.348,174.46,89.301,174.339z"/>
		<path fill-rule="evenodd" clip-rule="evenodd" fill="#FEFEFE" d="M391.191,162.131c-4.127,0-8.256-0.06-12.381,0.034
			c-1.375,0.031-1.81-0.422-1.64-1.71c0.07-0.533-0.013-1.083,0.025-1.622c0.231-3.317,1.083-4.492,4.404-4.599
			c6.823-0.218,13.658-0.191,20.486-0.104c2.292,0.03,2.91,0.922,3.02,3.212c0.228,4.789,0.228,4.789-4.578,4.789
			C397.416,162.131,394.304,162.131,391.191,162.131z"/>
		<path fill-rule="evenodd" clip-rule="evenodd" fill="#FEFEFE" d="M531.916,162.131c-4.127,0-8.256-0.052-12.381,0.031
			c-1.271,0.025-1.715-0.357-1.555-1.591c0.078-0.599-0.015-1.218,0.031-1.824c0.246-3.218,1.094-4.397,4.285-4.497
			c6.891-0.216,13.792-0.199,20.688-0.103c2.262,0.031,2.839,0.933,2.937,3.281c0.196,4.703,0.196,4.703-4.465,4.703
			C538.276,162.131,535.096,162.131,531.916,162.131z"/>
		<path fill-rule="evenodd" clip-rule="evenodd" fill="#FDFDFD" d="M469.2,207.67c0.337-0.842-0.897-2.572,1.554-2.444
			c3.068,0.16,5.057,1.173,5.003,2.952c-0.049,1.61-1.564,2.211-4.663,2.434C468.434,210.803,469.368,209.026,469.2,207.67z"/>
		<path fill-rule="evenodd" clip-rule="evenodd" fill="#FCFCFC" d="M469.215,199.942c0.042-0.998-0.427-2.312,1.476-2.017
			c1.399,0.217,3.153,0.08,3.107,2.057c-0.044,1.907-1.774,1.853-3.183,2.042C468.685,202.283,469.317,200.878,469.215,199.942z"/>
		<path fill-rule="evenodd" clip-rule="evenodd" fill="#FDFDFD" d="M575.05,202.421c3.074-0.03,5.308,1.767,5.372,4.323
			c0.066,2.677-2.169,4.633-5.295,4.631c-3.021-0.002-5.233-1.877-5.254-4.452C569.852,204.299,571.977,202.451,575.05,202.421z"/>
		<path fill-rule="evenodd" clip-rule="evenodd" fill="#FDFDFD" d="M496.108,211.375c-3.082,0.005-5.224-1.798-5.26-4.429
			c-0.036-2.682,2.183-4.55,5.376-4.525c3.028,0.024,5.248,1.953,5.201,4.52C501.379,209.498,499.135,211.369,496.108,211.375z"/>
	</g>
</g>
</svg>
